<?xml version="1.0" encoding="UTF-8"?>
<svg id="Layer_2" data-name="Layer 2" xmlns="http://www.w3.org/2000/svg" viewBox="0 0 206.88 47.66">
  <g id="Layer_1-2" data-name="Layer 1-2">
    <g>
      <path d="M59.55,19.97h17.86v6.91h-17.86v-6.91ZM72.47,46.96h-8V11.6h8v35.36Z" style="fill: #231f20;"/>
      <path d="M90.28,46.96h-7.99V6.26h8.05v16.52c.8-1.15,1.9-2.05,3.3-2.7,1.4-.65,2.95-.97,4.65-.97,3.08,0,5.48.98,7.19,2.94,1.71,1.96,2.57,4.71,2.57,8.23v16.68h-8v-14.68c0-1.15-.19-2.14-.57-2.97-.38-.83-.91-1.48-1.58-1.94-.67-.47-1.48-.7-2.41-.7-1.04,0-1.95.23-2.73.67-.78.45-1.38,1.09-1.82,1.92-.43.83-.65,1.8-.65,2.92v14.79Z" style="fill: #231f20;"/>
      <path d="M122.88,47.66c-2.73,0-4.91-.78-6.52-2.35s-2.41-3.66-2.41-6.29c0-2.48.82-4.46,2.47-5.94,1.64-1.48,4.02-2.34,7.14-2.59l7.27-.59v-.43c0-.9-.17-1.65-.52-2.24-.35-.59-.84-1.04-1.48-1.35-.64-.31-1.45-.46-2.41-.46-1.7,0-2.99.32-3.87.97s-1.32,1.58-1.32,2.81h-6.65c0-2.05.5-3.83,1.51-5.34,1-1.51,2.43-2.68,4.28-3.51,1.85-.83,4.01-1.24,6.46-1.24s4.66.47,6.41,1.4c1.75.94,3.08,2.3,4,4.1.92,1.8,1.38,3.99,1.38,6.59v15.76h-7.06l-.52-3.56c-.42,1.22-1.39,2.24-2.93,3.05s-3.28,1.21-5.22,1.21ZM125.69,41.51c1.52,0,2.77-.39,3.74-1.16.97-.77,1.45-1.93,1.45-3.48v-1.46l-4.05.38c-1.73.14-2.95.44-3.66.89-.71.45-1.06,1.11-1.06,1.97,0,.97.29,1.69.88,2.16.59.47,1.49.7,2.7.7Z" style="fill: #231f20;"/>
      <path d="M142.92,19.97h17.86v6.91h-17.86v-6.91ZM155.85,46.96h-8V11.6h8v35.36Z" style="fill: #231f20;"/>
      <path d="M173.66,46.96h-8V6.26h8.05v16.52c.8-1.15,1.9-2.05,3.3-2.7,1.4-.65,2.95-.97,4.65-.97,3.08,0,5.48.98,7.19,2.94,1.71,1.96,2.57,4.71,2.57,8.23v16.68h-7.99v-14.68c0-1.15-.19-2.14-.57-2.97-.38-.83-.91-1.48-1.58-1.94-.67-.47-1.48-.7-2.41-.7-1.04,0-1.95.23-2.73.67-.78.45-1.38,1.09-1.82,1.92-.43.83-.65,1.8-.65,2.92v14.79Z" style="fill: #231f20;"/>
      <path d="M202.37,15.76c-1.28,0-2.36-.46-3.25-1.38-.88-.92-1.32-2.04-1.32-3.37s.44-2.45,1.32-3.35c.88-.9,1.96-1.35,3.25-1.35s2.31.45,3.19,1.35c.88.9,1.32,2.02,1.32,3.35s-.44,2.46-1.32,3.37c-.88.92-1.95,1.38-3.19,1.38ZM198.42,46.96v-26.99h8v26.99h-8Z" style="fill: #231f20;"/>
    </g>
    <path d="M51.66,18.51c.6.38.97,1.04.97,1.75v25.2c0,1.61-1.77,2.6-3.14,1.75l-4.23-2.49c-.6-.38-.97-1.04-.97-1.75v-19.32c0-.71-.37-1.38-.98-1.75l-15.69-11.95c-.68-.42-1.53-.41-2.2.02l-16.02,12.55c-.59.38-.95,1.03-.95,1.74v18.72c0,.72-.37,1.38-.98,1.75l-4.33,2.51c-1.37.85-3.14-.14-3.14-1.75v-25.22c0-.71.37-1.37.97-1.75L25.23.31c.67-.41,1.51-.41,2.18,0" style="fill: #231f20;"/>
    <polygon points="43.39 2.12 43.39 11.43 36.46 6.17 36.46 2.12 43.39 2.12" style="fill: #231f20;"/>
    <rect x="22.66" y="30.61" width="7.33" height="12.14" style="fill: #231f20;"/>
  </g>
</svg>